# xmcd
#
# Track frame offsets:
#	150
#	5583
#	19194
#	33646
#	49683
#	64656
#	78626
#	96796
#	105480
#	113347
#	123398
#	129078
#	139480
#	150660
#	154755
#	169612
#	182414
#	191139
#	211623
#	219063
#	230601
#	240119
#	260867
#	270740
#
# Disc length: 3781 seconds
#
# Revision: 3
# Processed by: cddbd v1.5.1PL2 Copyright (c) Steve Scherf et al.
# Submitted via: EasyCDDAExtractor 9.0.0.1
#
DISCID=3a0ec318
DTITLE=Elvis Presley - The Original Elvis Presley Collection 42 - Aloha From H
DTITLE=awaii Via Satelite
DYEAR=1973
DGENRE=
TTITLE0=Also Sprach Zarathustra
TTITLE1=See See Rider
TTITLE2=Burning Love
TTITLE3=Something
TTITLE4=You Gave Me A Mountain
TTITLE5=Steamroller Blues
TTITLE6=My Way
TTITLE7=Love Me
TTITLE8=Johnny B.Goode
TTITLE9=It's Over
TTITLE10=Blue Suede Shoes
TTITLE11=I'm So Lonesome I Could Cry
TTITLE12=I Can't Stop Loving You
TTITLE13=Hound Dog
TTITLE14=What Now My Love
TTITLE15=Fever
TTITLE16=Welcome To My World
TTITLE17=Suspicious Minds
TTITLE18=Intros By Elvis
TTITLE19=I'll Remember You
TTITLE20=Medley - Long Tall Sally - Whole Lotta Shakin' Goin' On
TTITLE21=American Trilogy
TTITLE22=A Big Hunk O' Love
TTITLE23=Can't Help Falling In Love
EXTD=
EXTT0=
EXTT1=
EXTT2=
EXTT3=
EXTT4=
EXTT5=
EXTT6=
EXTT7=
EXTT8=
EXTT9=
EXTT10=
EXTT11=
EXTT12=
EXTT13=
EXTT14=
EXTT15=
EXTT16=
EXTT17=
EXTT18=
EXTT19=
EXTT20=
EXTT21=
EXTT22=
EXTT23=
PLAYORDER=
